<svg xmlns="http://www.w3.org/2000/svg" viewBox="0 0 3750 3755.4"><defs><style>.cls-1{fill:#090A0B;}</style></defs><g id="Layer_2" data-name="Layer 2"><g id="bg"><path class="cls-1" d="M3396.5,962c0,172,139.9,311.9,311.9,311.9a41.6,41.6,0,1,0,0-83.1c-126.1,0-228.8-102.7-228.8-228.8s102.7-228.8,228.8-228.8a41.6,41.6,0,1,0,0-83.1C3536.4,650.1,3396.5,790,3396.5,962Z"/><path class="cls-1" d="M3583.6,962a125,125,0,0,0,124.8,124.8,41.6,41.6,0,0,0,0-83.2,41.6,41.6,0,1,1,0-83.2,41.6,41.6,0,0,0,0-83.2A125,125,0,0,0,3583.6,962Z"/><path class="cls-1" d="M3396.5,2798.7c0,172,139.9,312,311.9,312a41.6,41.6,0,0,0,0-83.2c-126.1,0-228.8-102.6-228.8-228.8S3582.3,2570,3708.4,2570a41.6,41.6,0,0,0,0-83.2C3536.4,2486.8,3396.5,2626.7,3396.5,2798.7Z"/><path class="cls-1" d="M3583.6,2798.7a125,125,0,0,0,124.8,124.8,41.6,41.6,0,0,0,0-83.2,41.6,41.6,0,1,1,0-83.2,41.6,41.6,0,1,0,0-83.1C3639.6,2674,3583.6,2729.9,3583.6,2798.7Z"/><path class="cls-1" d="M645.1,5.4h83v46h-.2C725.5,427.8,418.5,733.2,41.6,733.2a41.6,41.6,0,1,1,0-83.1c332.5,0,603.1-270.6,603.1-603.1a38.6,38.6,0,0,1,.4-6Z"/><path class="cls-1" d="M458.2,4h83V50h-.5C539.1,323.8,315.8,546.1,41.6,546.1a41.6,41.6,0,1,1,0-83.2c229.3,0,415.9-186.6,415.9-415.9a36.4,36.4,0,0,1,.7-7.4Z"/><path class="cls-1" d="M271.2,4h83V50h-.7C351.9,220.6,212.6,358.9,41.6,358.9a41.6,41.6,0,0,1,0-83.2c126.1,0,228.7-102.6,228.7-228.7a37.7,37.7,0,0,1,.9-8.3Z"/><path class="cls-1" d="M83,5.4h83V41.5a49.1,49.1,0,0,1,.4,5.5c0,68.8-56,124.7-124.8,124.7a41.6,41.6,0,1,1,0-83.1A41.7,41.7,0,0,0,83,51.1Z"/><path class="cls-1" d="M353.5,1883.7c0-1.1,0-2.2-.1-3.3s.1-2.2.1-3.4c0-172-139.9-311.9-311.9-311.9a41.6,41.6,0,1,0,0,83.2c126.1,0,228.8,102.6,228.8,228.7,0,1.2,0,2.3.1,3.4s-.1,2.2-.1,3.3c0,126.1-102.7,228.8-228.8,228.8a41.6,41.6,0,1,0,0,83.1C213.6,2195.6,353.5,2055.7,353.5,1883.7Z"/><path class="cls-1" d="M166.4,1883.7c0-1.1-.1-2.2-.2-3.3s.2-2.2.2-3.4c0-68.8-56-124.7-124.8-124.7a41.6,41.6,0,1,0,0,83.1A41.7,41.7,0,0,1,83.2,1877c0,1.2.1,2.3.2,3.4s-.2,2.2-.2,3.3a41.7,41.7,0,0,1-41.6,41.6,41.6,41.6,0,0,0,0,83.2A125,125,0,0,0,166.4,1883.7Z"/><path class="cls-1" d="M353.5,3713.8c0-172-139.9-312-311.9-312a41.6,41.6,0,1,0,0,83.2c126.1,0,228.8,102.6,228.8,228.8a41.6,41.6,0,1,0,83.1,0Z"/><path class="cls-1" d="M166.4,3713.8A125,125,0,0,0,41.6,3589a41.6,41.6,0,1,0,0,83.2,41.6,41.6,0,0,1,41.6,41.6,41.6,41.6,0,0,0,83.2,0Z"/><path class="cls-1" d="M3476.8,108.4c.3-2.4.5-4.9.7-7.3s.5-7.4.7-11,.4-4.7.5-7.1c.2-4,.3-8.1.5-12.1,0-2,.2-3.9.2-5.9.2-6,.2-12,.2-18a41,41,0,0,0-.2-5V0h-83.1V46h.2v1c0,4.8-.1,9.6-.2,14.4-.1,1.5-.1,3-.2,4.4-.1,3.4-.2,6.8-.4,10.2,0,1.7-.1,3.3-.2,4.9-.2,3.4-.4,6.8-.7,10.2l-.3,4.4c-.4,4.1-.7,8.2-1.1,12.3a14.9,14.9,0,0,0-.2,2.1c-.6,5-1.1,10.1-1.8,15.1a.7.7,0,0,1-.1.5c-.6,4.7-1.3,9.4-2,14.1-.1,1-.3,1.9-.4,2.8l-1.2,7-2.8,1.1c-5.8,2.3-11.5,4.7-17.1,7.1l-6,2.5-16,7.1-3.8,1.7c-6.4,3-12.9,6-19.2,9.2-1.6.7-3.1,1.5-4.6,2.3-5.1,2.5-10.1,5.1-15.1,7.7l-5.1,2.6c-6.2,3.3-12.3,6.7-18.4,10.1l-3.4,1.9-10.7,6.2c.2-.5.3-1,.5-1.4s.5-1.6.8-2.3c.9-2.9,1.9-5.8,2.8-8.7l.9-3c.9-2.7,1.7-5.5,2.5-8.3l.8-2.9c.9-3.1,1.8-6.3,2.6-9.5.1-.5.3-1.1.4-1.6,1-3.8,2-7.7,2.9-11.6v-.2q1.4-5.6,2.4-11.1l.6-2.8c.6-2.9,1.1-5.7,1.7-8.6l.6-3.4c.4-2.8.9-5.7,1.4-8.5.1-1,.3-2.1.5-3.2.5-3.4,1-6.8,1.4-10.3.1-.4.1-.8.2-1.3.5-3.9.9-7.8,1.3-11.7l.3-2.7c.3-3,.5-6,.8-9l.3-3.9c.2-2.7.3-5.3.5-8s.1-2.7.2-4.2l.3-8.1c0-1.3.1-2.5.1-3.8.1-3.9.2-7.9.2-11.8a47.1,47.1,0,0,0-.3-5.3V1h-83.1V47h.2c0,229.3-186.6,415.9-415.9,415.9h-11.9l-3.7.2c-2.8,0-5.5.1-8.2.3l-4.2.2-7.9.5-4,.3-8.9.8-2.7.2-11.8,1.4-1.4.2-10.2,1.4-3.3.5-8.3,1.4-3.5.6-8.4,1.7-3.1.6-10.6,2.3h-.6l-11.5,2.8-2,.6-9.1,2.4-3.2.9-7.9,2.4-3.4,1.1-8.1,2.6-2.8.9-1.2.4c2.3-3.9,4.5-7.8,6.7-11.7l1.2-2.1c3.5-6.2,6.9-12.5,10.3-18.8l2.4-4.7c2.7-5.1,5.3-10.3,7.9-15.4.8-1.5,1.5-3,2.2-4.5,3.2-6.4,6.3-12.8,9.3-19.3l1.5-3.4c2.5-5.6,5-11.1,7.4-16.7l2.2-5.2c2.8-6.5,5.5-13.1,8.1-19.7l.2-.3a.4.4,0,0,1,.1-.3l5.5-1,4.9-.7,11.7-1.7,2.6-.4,14.5-1.7,3-.3,11.5-1,4.7-.3,9.9-.7,5-.3,10.2-.4h4.4l14.5-.2c172,0,311.9-139.9,311.9-311.9,0-1.2,0-2.4-.1-3.6V2h-83.1V47c0,126.1-102.6,228.7-228.7,228.7q-9,0-18,.3l-6.4.2-11.7.5-7.6.5-10.4.7-8,.7-10,.9h-.9c.4-1.6.8-3.3,1.3-4.9,1.2-4.5,2.3-9,3.4-13.4s2.1-8.5,3.1-12.7,2.1-8.9,3-13.3,1.9-8.7,2.8-13,1.8-8.8,2.6-13.3l2.4-13.1c.8-4.4,1.4-8.9,2.1-13.3s1.1-6.1,1.5-9.2c17.1-1.1,34-1.7,50.8-1.7A124.8,124.8,0,0,0,2918.1,49c.1,0,.1-46,.1-46h-83.1V43.2c-.1,1.2-.1,2.5-.1,3.8a41.7,41.7,0,0,1-41.6,41.6c-14.1,0-28.4.4-42.7,1.1.6-13.3,1-26.6,1.1-39.7h.1V4h-83V41.7a47.1,47.1,0,0,0-.3,5.3,814.1,814.1,0,0,1-4.4,83.5c-.9,7.9-1.8,15.9-2.9,23.8a779.5,779.5,0,0,1-40.1,162.6c-80.1,220.5-252.5,392.8-472.9,473-7.5,2.7-15,5.3-22.6,7.8a782.3,782.3,0,0,1-163.9,35.1,814.1,814.1,0,0,1-83.5,4.4l-3.3.2-3.3-.2a124.8,124.8,0,0,0,0,249.6l3.3-.2,3.3.2c16.7,0,33.7.5,50.8,1.6.4,3.1,1,6.1,1.5,9.2s1.3,8.9,2.1,13.4l2.4,13.1c.8,4.4,1.7,8.8,2.6,13.2l2.7,13,3,13.3c1,4.2,2.1,8.5,3.2,12.7s2.2,9,3.5,13.4l1.2,5h-.9l-10-1-8-.7-10.5-.7-7.5-.5-11.7-.5-6.4-.2c-6-.2-12-.2-18-.2h-6.6c-126.2,0-228.8-102.6-228.8-228.8s102.6-228.8,228.8-228.8h6.6c378.4,0,686.3-307.8,686.3-686.2a36.7,36.7,0,0,0-.7-7.5V2h-83V48h.5c-.6,332.1-270.9,602.1-603.1,602.1h-6.6c-172,0-312,139.9-312,311.9s140,312,312,312l3.3-.2,3.3.2h14.5l4.4.2,10.1.4,5.1.2,9.9.7,4.7.3,11.5,1.1,2.9.3c4.9.5,9.8,1,14.6,1.7l2.6.3,11.7,1.7,4.9.8,5.5.9h.1l.6,1.7,7.5,18.2c.9,2,1.7,4,2.6,5.9q3.3,8,6.9,15.6l1.9,4.3q4.5,9.6,9,18.9l2.6,5.2,7.4,14.5,2.9,5.4c3.2,6.2,6.6,12.3,10,18.4l1.6,2.9,6.4,11.1-1.2-.4-2.8-1-8.1-2.6-3.4-1.1-7.9-2.3-3.2-.9-9.1-2.5-2-.5-11.5-2.9h-.6l-10.6-2.3-3.1-.6-8.4-1.6-3.5-.7-8.4-1.3-3.3-.6-10.1-1.4-1.4-.2-11.8-1.3-2.7-.3-8.9-.8-4-.3-7.9-.5-4.2-.2-8.2-.3h-3.7l-11.9-.2-3.3.2-3.3-.2c-229.4,0-415.9-186.5-415.9-415.9s186.5-415.9,415.9-415.9l3.3-.2,3.3.2c275.2,0,499.1-223.9,499.1-499.1a34.9,34.9,0,0,0-.5-6.5V4h-83V50h.3c-1.6,228-187.6,412.9-415.9,412.9l-3.3.2-3.3-.2c-275.2,0-499.1,223.9-499.1,499.1,0,4,0,7.9.1,11.9,0,1.2.1,2.5.1,3.7l.3,8.2.3,4.2c.1,2.6.3,5.3.5,7.9s.2,2.6.2,3.9c.3,3,.6,6,.8,9l.3,2.7c.4,4,.9,7.9,1.4,11.8,0,.4.1.9.1,1.3l1.5,10.3c.1,1,.3,2.1.5,3.2.4,2.8.9,5.6,1.4,8.4l.6,3.4c.5,2.9,1.1,5.8,1.6,8.6l.6,2.9,2.4,11.1h.1c.9,3.9,1.8,7.8,2.8,11.6a10.5,10.5,0,0,1,.4,1.7c.9,3.1,1.7,6.3,2.6,9.5l.9,2.8,2.4,8.4,1,3c.9,2.9,1.8,5.7,2.8,8.6.2.8.5,1.5.7,2.3l.5,1.4c-3.5-2.1-7.1-4.1-10.7-6.1l-3.4-2c-6-3.4-12.2-6.7-18.3-10l-5.1-2.7-15.1-7.7-4.7-2.3c-6.3-3.1-12.7-6.2-19.2-9.1l-3.8-1.8-16-7-5.9-2.6-17.1-7-2.8-1.2-1.2-6.9c-.2-1-.3-1.9-.5-2.8-.7-4.7-1.4-9.4-2-14.1a1.3,1.3,0,0,0-.1-.6c-.6-5-1.2-10-1.7-15.1a14.9,14.9,0,0,1-.2-2.1c-.4-4.1-.8-8.1-1.1-12.2-.2-1.5-.3-3-.4-4.5l-.6-10.1-.3-4.9c-.2-3.4-.3-6.8-.4-10.2,0-1.5-.1-3-.1-4.4-.2-4.9-.2-9.7-.2-14.5,0-332.5,270.5-603.1,603.1-603.1l3.3-.2,3.3.2c172,0,312-139.9,312-311.9a42.1,42.1,0,0,0-.5-6.2V3h-83V49h.3c-1.1,125.2-103.3,226.7-228.8,226.7l-3.3.2-3.3-.2c-378.4,0-686.3,307.9-686.3,686.3,0,6,.1,12,.2,18l.3,6.1c.1,4,.2,8,.4,12,.2,2.4.4,4.8.5,7.1s.4,7.3.7,10.9.5,5,.7,7.5.6,7,1,10.5a2.8,2.8,0,0,0,.1.9l-5.2-1.3-13.1-3.4-12.7-3.2-13.6-3-12.6-2.7c-4.5-1-9.1-1.8-13.7-2.7l-12.6-2.3-14.1-2.2-8.6-1.4c-1.1-17.1-1.7-34.1-1.7-50.8a814.1,814.1,0,0,1,4.4-83.5,791.2,791.2,0,0,1,785.9-706.8h6.6c68.8,0,124.8-55.9,124.8-124.7a42.4,42.4,0,0,0-.3-5.1V3h-83V49h.1a41.7,41.7,0,0,1-41.6,39.6h-6.6c-14.1,0-28.4.4-42.7,1.1.7-14.4,1.1-28.6,1.1-42.7a36.4,36.4,0,0,0-.3-4.8V4h-83V50h.1c-.1,15.7-.6,31.7-1.7,47.7l-8.4,1.4-14.3,2.3-12.5,2.3-13.9,2.6-12.5,2.7-13.6,3.1-12.7,3.1-13.1,3.4L1639,120a2.8,2.8,0,0,0,.1-.9c.4-3.6.7-7.1,1-10.7s.5-4.9.7-7.3.5-7.4.7-11,.3-4.7.5-7.1c.2-4,.3-8.1.4-12.1l.3-5.9c.1-5.7.2-11.3.2-17h.7V2h-83V38.6a38.6,38.6,0,0,0-.9,8.4c0,4.8,0,9.6-.2,14.4,0,1.5-.1,3-.1,4.4-.1,3.4-.2,6.8-.4,10.2l-.3,4.9c-.1,3.4-.4,6.8-.6,10.2l-.3,4.4c-.4,4.1-.7,8.2-1.2,12.3a14.9,14.9,0,0,1-.2,2.1c-.5,5-1.1,10.1-1.7,15.1a1.1,1.1,0,0,0-.1.5c-.6,4.7-1.3,9.4-2,14.1-.2,1-.3,1.9-.5,2.8s-.8,4.7-1.2,7l-2.8,1.1-17.1,7.1-5.9,2.5-16,7.1-3.8,1.7c-6.5,3-12.9,6-19.2,9.2l-4.7,2.3-15.1,7.7-5,2.6c-6.2,3.3-12.4,6.7-18.4,10.1l-3.5,1.9-10.6,6.2c.2-.5.3-1,.5-1.4s.5-1.6.7-2.3c1-2.9,1.9-5.8,2.8-8.7.4-1,.7-2,1-3,.8-2.7,1.6-5.5,2.5-8.3.2-1,.5-1.9.8-2.9.9-3.1,1.7-6.3,2.6-9.5a9.4,9.4,0,0,1,.4-1.6c1-3.8,1.9-7.7,2.8-11.6v-.2l2.4-11.1.6-2.8c.5-2.9,1.1-5.7,1.6-8.6l.6-3.4c.5-2.8,1-5.7,1.4-8.5a30.6,30.6,0,0,0,.5-3.2l1.5-10.3a6.9,6.9,0,0,1,.2-1.3c.4-3.9.9-7.8,1.3-11.7a24.5,24.5,0,0,0,.2-2.7c.3-3,.6-6,.8-9,.2-1.3.2-2.6.3-3.9s.4-5.3.5-8l.3-4.2.3-8.1c0-1.3.1-2.5.1-3.8.1-3.9.2-7.9.2-11.8,0-1.2-.1-2.4-.2-3.6V3h-83V47c0,229.3-186.6,415.9-416,415.9H944.8l-3.8.2-8.2.3-4.2.2-7.8.5-4,.3-9,.8-2.7.2-11.7,1.4-1.4.2-10.2,1.4-3.3.5-8.3,1.4-3.5.6-8.5,1.7-3,.6-10.7,2.3H844l-11.5,2.8-2,.6-9.1,2.4-3.2.9-7.9,2.4-3.4,1.1-8.1,2.6-2.8.9-1.2.4,6.7-11.7,1.2-2.1c3.5-6.2,6.9-12.5,10.2-18.8.9-1.5,1.7-3.1,2.5-4.7,2.7-5.1,5.3-10.3,7.9-15.4l2.2-4.5c3.1-6.4,6.2-12.8,9.2-19.3.5-1.2,1.1-2.3,1.6-3.4,2.5-5.6,4.9-11.1,7.3-16.7.8-1.7,1.5-3.5,2.3-5.2,2.7-6.5,5.5-13.1,8.1-19.7,0-.1.1-.2.1-.3s.1-.2.1-.3l5.6-1,4.8-.7,11.8-1.7,2.5-.4,14.6-1.7,3-.3,11.5-1,4.7-.3,9.9-.7,5-.3,10.1-.4h4.5l14.4-.2c172,0,312-139.9,312-311.9,0-1.3-.1-2.5-.2-3.7V4h-83V47c0,126.1-102.6,228.7-228.8,228.7q-9,0-18,.3l-6.3.2-11.7.5-7.6.5-10.4.7-8.1.7-9.9.9h-1c.5-1.6.9-3.3,1.3-4.9,1.2-4.5,2.4-9,3.5-13.4s2.1-8.5,3.1-12.7,2-8.9,3-13.3,1.9-8.7,2.8-13,1.7-8.8,2.6-13.3l2.4-13.1,2.1-13.3,1.5-9.2c17-1.1,34-1.7,50.7-1.7,67.8,0,123.2-54.3,124.8-121.7V4h-83V43.3c-.1,1.2-.2,2.4-.2,3.7a41.6,41.6,0,0,1-41.6,41.6c-14.1,0-28.3.4-42.7,1.1.7-13.3,1.1-26.6,1.1-39.7h.4V4h-83V40.3a36.3,36.3,0,0,0-.6,6.7,786.7,786.7,0,0,1-4.4,83.5c-.8,7.9-1.8,15.9-2.8,23.8a785.8,785.8,0,0,1-40.1,162.6C704.4,537.4,532,709.7,311.6,789.9c-7.5,2.7-15.1,5.3-22.6,7.8a782.3,782.3,0,0,1-163.9,35.1,815.6,815.6,0,0,1-83.5,4.4,41.6,41.6,0,1,0,0,83.2c14.1,0,28.4-.4,42.7-1.1-.7,14.3-1.1,28.6-1.1,42.7s.4,28.4,1.1,42.7c-14.3-.7-28.6-1.1-42.7-1.1a41.6,41.6,0,1,0,0,83.2c16.7,0,33.7.5,50.7,1.6l1.5,9.2c.7,4.4,1.4,8.9,2.2,13.4s1.5,8.7,2.4,13.1,1.6,8.8,2.5,13.2,1.9,8.7,2.8,13l3,13.3c1,4.2,2.1,8.5,3.1,12.7s2.3,9,3.5,13.4c.5,1.7.8,3.3,1.3,5h-1l-9.9-1-8.1-.7-10.4-.7-7.6-.5-11.6-.5-6.4-.2c-6-.2-12-.2-18-.2a41.6,41.6,0,0,0,0,83.2H56l4.5.2,10.1.4,5,.2,10,.7,4.7.3,11.4,1.1,3,.3c4.9.5,9.7,1,14.6,1.7l2.5.3,11.8,1.7,4.8.8,5.6.9h0c.2.6.5,1.1.7,1.7,2.4,6.1,4.9,12.2,7.5,18.2.8,2,1.7,4,2.5,5.9,2.3,5.3,4.6,10.5,7,15.6.6,1.5,1.3,2.9,1.9,4.3q4.3,9.6,9,18.9c.9,1.8,1.7,3.5,2.6,5.2,2.4,4.9,4.9,9.7,7.4,14.5l2.8,5.4c3.3,6.2,6.6,12.3,10.1,18.4l1.6,2.9c2.1,3.7,4.2,7.4,6.4,11.1l-1.3-.4-2.8-1-8.1-2.6-3.3-1.1-8-2.3-3.2-.9-9-2.5-2-.5-11.6-2.9h-.5l-10.7-2.3-3-.6-8.4-1.6-3.6-.7-8.3-1.3-3.3-.6-10.1-1.4-1.4-.2-11.8-1.3-2.7-.3-9-.8-3.9-.3-7.9-.5-4.2-.2-8.2-.3H53.5l-11.9-.2a41.6,41.6,0,1,0,0,83.2c229.3,0,415.9,186.6,415.9,415.9,0,1.2.1,2.3.2,3.4s-.2,2.2-.2,3.3c0,229.3-186.6,415.9-415.9,415.9a41.6,41.6,0,0,0,0,83.2c275.2,0,499.1-223.9,499.1-499.1,0-1.1-.1-2.2-.2-3.3s.2-2.2.2-3.4c0-3.9-.1-7.9-.2-11.8,0-1.3,0-2.5-.1-3.8l-.3-8.1c0-1.4-.1-2.9-.2-4.3s-.3-5.2-.5-7.7l-.3-4.2c-.2-2.8-.5-5.7-.8-8.5-.1-1.1-.1-2.1-.3-3.2-.4-3.8-.8-7.7-1.3-11.5l-.3-2.2c-.4-3.1-.8-6.2-1.3-9.3l-.6-3.9c-.4-2.5-.8-5.1-1.3-7.6s-.4-2.8-.7-4.2l-1.5-7.5c-.2-1.3-.5-2.6-.7-3.8-.7-3.1-1.3-6.1-2-9.1-.2-.7-.3-1.4-.5-2.1q-1.2-5.5-2.7-11.1c-.2-1-.5-2.1-.8-3.1l-2.1-7.9-1.2-4-2.1-7-1.2-4.1-2.4-7.3-1.2-3.4-.3-1.1,12,6.9,1.7,1,19,10.3,4.5,2.3c5.1,2.8,10.3,5.4,15.6,8l4.3,2.2c6.4,3.2,12.9,6.2,19.4,9.2l3.6,1.6,16.2,7.2,5.8,2.5,17.7,7.3,2.3.9c.4,2.1.7,4.1,1.1,6.2l.6,4c.6,4,1.2,8.1,1.7,12.1.1.8.3,1.6.4,2.4.6,4.9,1.1,9.7,1.7,14.5l.3,3.5c.4,3.6.7,7.3,1,10.9.1,1.7.2,3.4.4,5.1l.6,9.6.3,5.2.3,9.9c.1,1.6.2,3.1.2,4.6.1,4.8.2,9.6.2,14.4,0,1.2.1,2.3.2,3.4s-.2,2.2-.2,3.3c0,332.5-270.6,603.1-603.1,603.1a41.6,41.6,0,1,0,0,83.2c378.4,0,686.3-307.9,686.3-686.3,0-1.1-.1-2.2-.2-3.3s.2-2.2.2-3.4q0-9-.3-18c0-2.2-.1-4.3-.2-6.5-.2-3.9-.3-7.7-.5-11.5s-.3-5.3-.5-8-.4-6.6-.7-10-.5-5.8-.8-8.8-.5-6.1-.8-9.1a3.8,3.8,0,0,1-.1-1l5.1,1.3,13.2,3.4,12.7,3.1,13.5,3.1,12.6,2.7,13.8,2.6,12.6,2.3,14.2,2.3,8.5,1.4c1.1,17,1.6,34,1.6,50.7,0,1.2.1,2.3.2,3.4s-.2,2.2-.2,3.3a784,784,0,0,1-4.4,83.5c-.8,8-1.8,15.9-2.8,23.9a786.4,786.4,0,0,1-40.1,162.5,788.5,788.5,0,0,1-472.9,473c-7.5,2.7-15.1,5.4-22.6,7.8a782.3,782.3,0,0,1-163.9,35.1,788.5,788.5,0,0,1-83.5,4.5,41.6,41.6,0,1,0,0,83.1c14.1,0,28.4-.3,42.7-1-.7,14.3-1.1,28.5-1.1,42.6s.4,28.4,1.1,42.7c-14.3-.7-28.6-1.1-42.7-1.1a41.6,41.6,0,1,0,0,83.2c16.7,0,33.7.6,50.7,1.7l1.5,9.1c.7,4.5,1.4,8.9,2.2,13.4s1.5,8.7,2.4,13.1,1.6,8.9,2.5,13.3,1.9,8.6,2.8,13l3,13.2c1,4.3,2.1,8.5,3.1,12.7s2.3,9,3.5,13.5c.5,1.6.8,3.3,1.3,4.9h-1l-9.9-.9-8.1-.8-10.4-.7-7.6-.4L66,3028l-6.4-.3-18-.2a41.6,41.6,0,1,0,0,83.2l14.4.2h4.5l10.1.4,5,.3,10,.6,4.7.4,11.4,1,3,.3,14.6,1.7,2.5.4,11.8,1.6,4.8.8,5.6,1h0c.2.6.5,1.1.7,1.7q3.6,9.2,7.5,18.3c.8,1.9,1.7,3.9,2.5,5.9,2.3,5.2,4.6,10.4,7,15.6l1.9,4.3q4.3,9.4,9,18.9l2.6,5.1c2.4,4.9,4.9,9.7,7.4,14.6l2.8,5.4c3.3,6.1,6.6,12.3,10.1,18.3l1.6,2.9c2.1,3.7,4.2,7.4,6.4,11.1l-1.3-.4-2.8-.9-8.1-2.7-3.3-1-8-2.4-3.2-.9-9-2.5-2-.5-11.6-2.8h-.5L143,3225l-3-.6-8.4-1.6-3.6-.6-8.3-1.4-3.3-.5-10.1-1.4-1.4-.2-11.8-1.4-2.7-.2-9-.8-3.9-.3-7.9-.5-4.2-.3-8.2-.3H41.6a41.6,41.6,0,0,0,0,83.2c229.3,0,415.9,186.5,415.9,415.9a41.6,41.6,0,0,0,83.2,0c0-4-.1-7.9-.2-11.9,0-1.2,0-2.5-.1-3.7l-.3-8.2c0-1.4-.1-2.8-.2-4.2s-.3-5.2-.5-7.8l-.3-4.1c-.2-2.9-.5-5.7-.8-8.6-.1-1-.1-2.1-.3-3.1-.4-3.9-.8-7.7-1.3-11.6l-.3-2.1c-.4-3.2-.8-6.3-1.3-9.4l-.6-3.8c-.4-2.6-.8-5.1-1.3-7.7s-.4-2.7-.7-4.1l-1.5-7.6c-.2-1.2-.5-2.5-.7-3.8-.7-3-1.3-6.1-2-9.1-.2-.7-.3-1.4-.5-2.1-.8-3.7-1.7-7.4-2.7-11-.2-1.1-.5-2.1-.8-3.2l-2.1-7.9-1.2-3.9-2.1-7.1-1.2-4-2.4-7.4-1.2-3.4-.3-1.1,12,6.9,1.7,1c6.3,3.5,12.6,7,19,10.3l4.5,2.4c5.1,2.7,10.3,5.4,15.6,8l4.3,2.1c6.4,3.2,12.9,6.3,19.4,9.3l3.6,1.6,16.2,7.2,5.8,2.4c5.9,2.5,11.7,5,17.7,7.3l2.3,1c.4,2,.7,4.1,1.1,6.1l.6,4.1c.6,4,1.2,8,1.7,12,.1.8.3,1.7.4,2.5.6,4.8,1.1,9.6,1.7,14.5l.3,3.4c.4,3.7.7,7.3,1,11,.1,1.6.2,3.3.4,5l.6,9.6.3,5.2.3,10c.1,1.5.2,3,.2,4.6.1,4.8.2,9.6.2,14.4a41.6,41.6,0,0,0,83.2,0q0-9-.3-18c0-2.2-.1-4.4-.2-6.6-.2-3.8-.3-7.6-.5-11.5s-.3-5.3-.5-7.9-.4-6.7-.7-10-.5-5.9-.8-8.8-.5-6.1-.8-9.2a3.4,3.4,0,0,1-.1-1l5.1,1.3,13.2,3.4,12.7,3.1,13.5,3.1,12.6,2.7,13.8,2.7,12.6,2.3,14.2,2.3,8.5,1.3c1.1,17.1,1.6,34,1.6,50.8a41.6,41.6,0,1,0,83.2,0c0-14.1-.4-28.4-1.1-42.7,14.4.7,28.6,1.1,42.7,1.1a41.6,41.6,0,0,1,41.6,41.6,41.6,41.6,0,0,0,83.2,0A125,125,0,0,0,956.6,3589a817.1,817.1,0,0,1-83.5-4.4,790.1,790.1,0,0,1-186.4-42.9,819.2,819.2,0,0,1-80.4-34.3,788.6,788.6,0,0,1-392.6-438.7h0a785.2,785.2,0,0,1-42.9-186.4,811.2,811.2,0,0,1-4.4-83.5c0-16.7.5-33.7,1.6-50.7l8.4-1.4,14.4-2.3,12.4-2.3,13.9-2.6,12.5-2.7,13.7-3.1,12.6-3.1,13.2-3.4,5.1-1.3a3.8,3.8,0,0,1-.1,1c-.3,3-.5,6.1-.8,9.1s-.6,5.9-.8,8.8-.5,6.6-.7,9.9-.3,5.4-.5,8.1-.3,7.6-.5,11.4c0,2.2-.2,4.4-.2,6.6q-.3,9-.3,18c0,378.5,307.9,686.3,686.3,686.3,126.2,0,228.8,102.6,228.8,228.8a41.6,41.6,0,0,0,83.2,0c0-172-140-312-312-312-332.5,0-603.1-270.5-603.1-603.1,0-4.8.1-9.6.2-14.4.1-1.5.1-3,.2-4.6.1-3.3.2-6.6.4-9.9s.1-3.5.2-5.3.4-6.3.7-9.5l.3-5.1c.3-3.6.7-7.3,1-10.9.1-1.2.2-2.3.4-3.5.5-4.8,1-9.7,1.7-14.5l.3-2.4c.5-4,1.1-8,1.7-12.1.2-1.3.5-2.7.7-4s.7-4.1,1-6.2l2.3-.9c6-2.4,11.9-4.8,17.7-7.3l5.8-2.5,16.2-7.1,3.7-1.7,19.3-9.2,4.3-2.2c5.3-2.6,10.5-5.2,15.6-7.9l4.6-2.4c6.3-3.4,12.7-6.8,18.9-10.4l1.7-.9,12.1-6.9a3.6,3.6,0,0,0-.4,1.1,33.8,33.8,0,0,0-1.1,3.4c-.9,2.4-1.7,4.9-2.4,7.3s-.9,2.7-1.3,4.1l-2.1,7c-.4,1.4-.8,2.7-1.1,4s-1.5,5.2-2.2,7.8a29.9,29.9,0,0,1-.8,3.2c-.9,3.7-1.9,7.4-2.7,11.1-.2.7-.3,1.4-.5,2.1-.7,3-1.3,6-1.9,9.1-.3,1.2-.6,2.5-.8,3.8l-1.5,7.5c-.2,1.4-.5,2.8-.7,4.2s-.9,5.1-1.3,7.6l-.6,3.9c-.5,3.1-.9,6.2-1.3,9.3l-.3,2.2c-.5,3.8-.9,7.7-1.3,11.5l-.3,3.2c-.3,2.8-.6,5.7-.8,8.5l-.3,4.2c-.2,2.5-.3,5.1-.5,7.7s-.1,2.9-.2,4.3l-.3,8.1c0,1.3-.1,2.5-.1,3.8-.1,3.9-.2,7.9-.2,11.8,0,275.3,223.9,499.2,499.1,499.2,229.4,0,416,186.5,416,415.9a41.6,41.6,0,1,0,83.2,0c0-275.2-224-499.1-499.2-499.1-229.3,0-415.9-186.6-415.9-416s186.6-415.9,415.9-415.9h11.9l3.7-.2c2.8,0,5.5-.1,8.2-.3l4.2-.2,7.9-.5,4-.3,9-.8,2.6-.2,11.8-1.4,1.3-.2,10.3-1.4,3.2-.5,8.4-1.4,3.5-.6,8.6-1.7,2.8-.5,11.1-2.5h.1l11.7-2.8,1.6-.5,9.5-2.6,2.9-.8,8.3-2.5,3-.9,8.6-2.8,2.3-.8,1.4-.4c-2.1,3.5-4.1,7.1-6.1,10.6a37.9,37.9,0,0,1-2,3.4c-3.4,6.1-6.7,12.3-10,18.4-.9,1.7-1.8,3.4-2.6,5.1-2.7,5-5.2,10.1-7.8,15.1-.7,1.6-1.5,3.1-2.3,4.6-3.1,6.4-6.1,12.8-9.1,19.2l-1.7,3.8c-2.5,5.3-4.8,10.7-7.1,16l-2.6,6c-2.4,5.7-4.7,11.3-7,17.1-.4.9-.8,1.9-1.1,2.8l-7,1.2-2.8.4c-4.7.8-9.4,1.4-14.1,2.1h-.5l-15.1,1.8-2.1.2-12.3,1.1-4.4.3-10.2.7-4.9.3-10.2.4h-4.4l-14.5.2c-172,0-311.9,139.9-311.9,311.9s139.9,312,311.9,312c332.6,0,603.1,270.5,603.1,603.1a41.6,41.6,0,0,0,83.2,0c0-378.4-307.8-686.3-686.3-686.3-126.1,0-228.7-102.6-228.7-228.8S830.5,2570,956.6,2570l18.1-.3,6.1-.2,11.9-.5,7.2-.4,10.8-.8,7.5-.6,10.5-1h.9c-.5,1.7-.9,3.4-1.3,5.1-1.2,4.4-2.3,8.8-3.4,13.2s-2.1,8.4-3.1,12.7-2.1,9-3.1,13.5l-2.7,12.7c-.9,4.5-1.8,9.1-2.6,13.6l-2.4,12.7c-.8,4.7-1.5,9.4-2.2,14.1-.5,2.8-1,5.7-1.4,8.6-17.1,1.1-34.1,1.7-50.8,1.7-68.8,0-124.8,55.9-124.8,124.7a125,125,0,0,0,124.8,124.8,814.1,814.1,0,0,1,83.5,4.4,789,789,0,0,1,702.4,702.4,814.1,814.1,0,0,1,4.4,83.5,41.6,41.6,0,0,0,83.2,0c0-14.1-.4-28.4-1.1-42.7,14.3.7,28.6,1.1,42.7,1.1l3.3-.2,3.3.2a41.6,41.6,0,0,1,41.6,41.6,41.6,41.6,0,0,0,83.2,0A125,125,0,0,0,1878.3,3589l-3.3.2-3.3-.2c-16.7,0-33.7-.5-50.8-1.7-.4-2.8-.9-5.6-1.3-8.5-.8-4.7-1.5-9.5-2.3-14.2s-1.5-8.3-2.3-12.5l-2.7-13.9-2.7-12.5c-1-4.5-2-9.1-3.1-13.6s-2-8.5-3.1-12.7-2.2-8.7-3.4-13.1c-.4-1.7-.8-3.5-1.3-5.2h.9l10.5,1,7.5.7,10.8.7,7.2.5,12,.4,6,.3,18.1.2h6.6c126.2,0,228.8,102.6,228.8,228.8a41.6,41.6,0,0,0,83.2,0c0-172-140-312-312-312l-3.3.2-3.3-.2c-4.8,0-9.7,0-14.5-.2h-4.4l-10.2-.4-4.9-.3-10.2-.6-4.4-.3-12.3-1.2-2.1-.2-15.1-1.7h-.5l-14.1-2-2.8-.5-6.9-1.1-1.2-2.9c-2.3-5.7-4.6-11.4-7-17.1-.9-2-1.7-4-2.6-5.9-2.3-5.4-4.6-10.7-7.1-16-.5-1.3-1.1-2.6-1.7-3.8-2.9-6.5-6-12.9-9.1-19.2-.8-1.6-1.6-3.1-2.3-4.7l-7.7-15.1-2.7-5c-3.3-6.2-6.6-12.3-10-18.4l-2-3.4c-2-3.6-4-7.2-6.1-10.7l1.4.5,2.3.7,8.6,2.9,3,.9,8.3,2.5,2.9.8,9.6,2.6,1.5.4,11.7,2.8h.1l11.1,2.4,2.8.6,8.7,1.6,3.4.6,8.4,1.4,3.2.5c3.4.6,6.9,1,10.3,1.5l1.3.2,11.8,1.3,2.6.3,9,.8,4,.3,7.9.5,4.2.2,8.2.3h3.7l11.9.2,3.3-.2,3.3.2c229.4,0,415.9,186.5,415.9,415.9a41.6,41.6,0,1,0,83.2,0c0-4,0-7.9-.1-11.9,0-1.2-.1-2.5-.1-3.7l-.3-8.2-.3-4.2c-.1-2.6-.3-5.2-.5-7.8s-.2-2.8-.3-4.1c-.2-2.9-.4-5.7-.7-8.6l-.3-3.1c-.4-3.9-.9-7.7-1.3-11.6l-.3-2.1c-.4-3.2-.9-6.3-1.3-9.4-.2-1.3-.5-2.5-.7-3.8l-1.2-7.7c-.3-1.3-.5-2.7-.8-4.1s-.9-5-1.4-7.6-.5-2.5-.8-3.8c-.6-3-1.3-6.1-2-9.1-.1-.7-.3-1.4-.4-2.1l-2.7-11-.9-3.2-2.1-7.9c-.4-1.3-.8-2.6-1.1-3.9s-1.4-4.7-2.2-7.1l-1.2-4-2.4-7.4c-.4-1.1-.8-2.3-1.1-3.4a4.9,4.9,0,0,1-.4-1.1c4,2.4,8,4.6,12.1,6.9l1.6,1c6.3,3.5,12.6,7,19,10.3l4.5,2.4,15.6,8,4.4,2.1c6.4,3.2,12.8,6.3,19.3,9.3l3.6,1.6,16.3,7.2,5.7,2.4c5.9,2.5,11.8,5,17.7,7.3l2.3,1c.4,2,.8,4.1,1.1,6.1l.6,4.1,1.8,12,.3,2.5c.6,4.8,1.2,9.6,1.7,14.5l.3,3.4c.4,3.7.7,7.3,1,11,.2,1.6.3,3.3.4,5l.6,9.6.3,5.2c.2,3.3.3,6.7.4,10,0,1.5.1,3,.1,4.6.2,4.8.2,9.6.2,14.4a41.6,41.6,0,0,0,83.2,0c0-6-.1-12-.2-18l-.3-6.6c-.1-3.8-.2-7.6-.5-11.5s-.3-5.3-.5-7.9l-.6-10c-.3-3-.6-5.9-.8-8.8l-.9-9.2a3.4,3.4,0,0,0-.1-1l5.2,1.3,13.1,3.4,12.7,3.1,13.6,3.1c4.2.9,8.3,1.9,12.6,2.7l13.7,2.7,12.6,2.3,14.2,2.3,8.5,1.3c1.1,17.1,1.7,34,1.7,50.8a41.6,41.6,0,0,0,83.2,0c0-14.1-.4-28.4-1.1-42.7,14.3.7,28.6,1.1,42.7,1.1a41.6,41.6,0,0,1,41.6,41.6,41.6,41.6,0,1,0,83.1,0c0-68.8-55.9-124.8-124.7-124.8a814.1,814.1,0,0,1-83.5-4.4,790.9,790.9,0,0,1-186.5-42.9,827.8,827.8,0,0,1-80.3-34.3c-181.8-89.7-322.5-245.8-392.7-438.7h0a785.2,785.2,0,0,1-42.9-186.4,811.2,811.2,0,0,1-4.4-83.5c0-16.7.6-33.7,1.7-50.7l8.3-1.4,14.4-2.3,12.5-2.3,13.9-2.6,12.5-2.7,13.6-3.1,12.7-3.1,13.1-3.4,5.2-1.3a3.1,3.1,0,0,0-.1,1l-.9,9.1c-.2,3-.6,5.9-.8,8.8l-.6,9.9-.6,8.1c-.2,3.8-.3,7.6-.4,11.4l-.3,6.6c-.1,6-.2,12-.2,18,0,378.5,307.8,686.3,686.3,686.3,126.1,0,228.7,102.6,228.7,228.8a41.6,41.6,0,0,0,83.2,0c0-172-139.9-312-311.9-312-332.6,0-603.1-270.5-603.1-603.1,0-4.8.1-9.6.2-14.4,0-1.5.1-3,.1-4.6.1-3.3.2-6.6.4-9.9l.3-5.3.6-9.5c.1-1.7.2-3.4.4-5.1.3-3.6.6-7.3,1-10.9l.3-3.5c.5-4.8,1.1-9.7,1.7-14.5l.3-2.4c.6-4,1.1-8,1.8-12.1l.6-4c.3-2.1.7-4.1,1.1-6.2l2.3-.9,17.7-7.3,5.8-2.5,16.2-7.1,3.6-1.7,19.3-9.2,4.4-2.2,15.6-7.9,4.5-2.4c6.4-3.4,12.7-6.8,19-10.4l1.6-.9,12.1-6.9c-.1.3-.3.7-.4,1.1s-.7,2.2-1.1,3.4l-2.4,7.3-1.2,4.1c-.8,2.3-1.5,4.7-2.2,7s-.7,2.7-1.1,4l-2.1,7.8-.9,3.2-2.7,11.1c-.1.7-.3,1.4-.4,2.1-.7,3-1.4,6-2,9.1-.3,1.2-.5,2.5-.8,3.8s-1,5-1.4,7.5-.5,2.8-.8,4.2-.8,5.1-1.3,7.6l-.6,3.9c-.4,3.1-.9,6.2-1.3,9.3l-.3,2.2c-.4,3.8-.9,7.7-1.3,11.5l-.3,3.2c-.3,2.8-.5,5.7-.7,8.5a29.7,29.7,0,0,0-.3,4.2c-.2,2.5-.4,5.1-.5,7.7l-.3,4.3-.3,8.1c0,1.3-.1,2.5-.1,3.8-.1,3.9-.2,7.9-.2,11.8,0,275.3,224,499.2,499.2,499.2,229.3,0,415.9,186.5,415.9,415.9a41.6,41.6,0,1,0,83.2,0c0-275.2-223.9-499.1-499.1-499.1-229.4,0-416-186.6-416-416s186.6-415.9,416-415.9h11.8l3.8-.2q4,0,8.1-.3l4.3-.2,7.8-.5,4-.3,9-.8,2.7-.2,11.7-1.4,1.3-.2,10.3-1.4,3.2-.5,8.5-1.4,3.4-.6,8.6-1.7,2.8-.5,11.1-2.5h.2l11.6-2.8,1.6-.5,9.5-2.6,2.9-.8,8.3-2.5,3-.9,8.7-2.8,2.3-.8,1.3-.4c-2,3.5-4,7.1-6.1,10.6-.6,1.2-1.3,2.3-1.9,3.4l-10.1,18.4-2.6,5.1-7.7,15.1c-.8,1.6-1.6,3.1-2.3,4.6-3.1,6.4-6.2,12.8-9.2,19.2-.6,1.3-1.1,2.6-1.7,3.8-2.4,5.3-4.8,10.7-7.1,16-.9,2-1.7,4-2.5,6-2.4,5.7-4.8,11.3-7.1,17.1-.3.9-.8,1.9-1.1,2.8l-7,1.2-2.8.4c-4.7.8-9.4,1.4-14.1,2.1h-.5c-5,.7-10,1.3-15.1,1.8l-2.1.2-12.3,1.1-4.4.3-10.1.7-5,.3-10.2.4h-4.4l-14.4.2c-172,0-312,139.9-312,311.9s140,312,312,312c332.5,0,603.1,270.5,603.1,603.1a41.6,41.6,0,1,0,83.1,0c0-378.4-307.8-686.3-686.2-686.3-126.2,0-228.8-102.6-228.8-228.8S2667.2,2570,2793.4,2570q9,0,18-.3l6.1-.2,11.9-.5,7.2-.4,10.9-.8,7.4-.6,10.6-1h.9c-.5,1.7-.9,3.4-1.4,5.1-1.1,4.4-2.3,8.8-3.4,13.2s-2.1,8.4-3.1,12.7-2.1,9-3.1,13.5l-2.7,12.7c-.9,4.5-1.8,9.1-2.6,13.6s-1.6,8.5-2.3,12.7-1.6,9.4-2.3,14.1c-.4,2.8-1,5.7-1.4,8.6-17,1.1-34,1.7-50.7,1.7-68.8,0-124.8,55.9-124.8,124.7a125,125,0,0,0,124.8,124.8,815.6,815.6,0,0,1,83.5,4.4,785.3,785.3,0,0,1,186.4,43c220.5,80.1,392.8,252.5,473,472.9a787.1,787.1,0,0,1,42.9,186.5,814.1,814.1,0,0,1,4.4,83.5,41.6,41.6,0,1,0,83.2,0c0-14.1-.4-28.4-1.1-42.7,14.4.7,28.6,1.1,42.7,1.1a41.6,41.6,0,0,0,0-83.2c-16.7,0-33.7-.5-50.8-1.7-.4-2.8-.9-5.6-1.3-8.5-.7-4.7-1.5-9.5-2.3-14.2s-1.5-8.3-2.3-12.5-1.7-9.3-2.7-13.9-1.7-8.3-2.6-12.5-2.1-9.1-3.1-13.6-2.1-8.5-3.1-12.7-2.3-8.7-3.4-13.1c-.5-1.7-.9-3.5-1.4-5.2h.9l10.5,1,7.5.7,10.9.7,7.2.5,11.9.4,6.1.3,18,.2a41.6,41.6,0,0,0,0-83.2c-4.8,0-9.6,0-14.4-.2h-4.5l-10.2-.4-4.9-.3c-3.4-.1-6.7-.4-10.1-.6l-4.4-.3-12.3-1.2-2.1-.2-15.1-1.7h-.6l-14-2-2.9-.5-6.9-1.1-1.2-2.9c-2.2-5.7-4.6-11.4-7-17.1-.8-2-1.7-4-2.5-5.9-2.4-5.4-4.7-10.7-7.1-16-.6-1.3-1.1-2.6-1.7-3.8-3-6.5-6.1-12.9-9.2-19.2-.7-1.6-1.5-3.1-2.3-4.7l-7.7-15.1-2.7-5c-3.2-6.2-6.6-12.3-10-18.4l-2-3.4c-2-3.6-4-7.2-6.1-10.7l1.4.5,2.3.7,8.6,2.9,3,.9,8.4,2.5,2.8.8,9.6,2.6,1.5.4,11.7,2.8h.2l11.1,2.4,2.8.6,8.6,1.6,3.4.6,8.5,1.4,3.2.5c3.4.6,6.8,1,10.2,1.5l1.3.2,11.8,1.3,2.7.3,9,.8,3.9.3,7.9.5,4.2.2,8.2.3h3.7l11.9.2a41.6,41.6,0,0,0,0-83.2c-229.3,0-415.9-186.6-415.9-416s186.6-415.9,415.9-415.9a41.6,41.6,0,0,0,0-83.2c-275.2,0-499.1,223.9-499.1,499.1,0,4,.1,8,.1,11.9.1,1.3.1,2.5.2,3.7,0,2.8.2,5.5.3,8.2s.1,2.8.2,4.2.3,5.3.5,7.9l.3,4c.2,3,.5,6,.8,9a21.1,21.1,0,0,1,.2,2.6c.4,4,.9,7.9,1.4,11.8a5.1,5.1,0,0,0,.2,1.3c.4,3.5.9,6.9,1.4,10.3.2,1.1.3,2.1.5,3.2.5,2.8.9,5.6,1.4,8.5l.6,3.4c.5,2.8,1.1,5.7,1.7,8.5.2,1,.3,2,.5,2.9.8,3.7,1.6,7.4,2.5,11.1h0c.9,3.9,1.9,7.8,2.8,11.7.2.5.3,1.1.5,1.6.8,3.2,1.7,6.4,2.6,9.5.2,1,.5,1.9.8,2.9.8,2.8,1.6,5.5,2.5,8.3l.9,3c.9,2.9,1.9,5.8,2.8,8.7.3.7.5,1.5.8,2.2s.3,1,.4,1.4l-10.6-6.1-3.4-1.9c-6.1-3.5-12.3-6.8-18.4-10.1l-5.1-2.6c-5-2.7-10-5.2-15.1-7.8l-4.6-2.3-19.2-9.1-3.8-1.7-16-7.1-6-2.6c-5.6-2.4-11.3-4.7-17.1-7l-2.8-1.1-1.2-7c-.1-.9-.3-1.9-.4-2.8-.8-4.7-1.4-9.4-2.1-14.1v-.5c-.7-5-1.3-10.1-1.8-15.1-.1-.7-.1-1.4-.2-2.1-.4-4.1-.8-8.2-1.1-12.3l-.3-4.4c-.3-3.4-.5-6.8-.7-10.2l-.3-4.9c-.1-3.4-.2-6.8-.4-10.2,0-1.5-.1-2.9-.1-4.4-.1-4.8-.2-9.6-.2-14.5,0-332.5,270.6-603.1,603.1-603.1a41.6,41.6,0,1,0,0-83.1c-378.4,0-686.3,307.8-686.3,686.2,0,6.1.1,12.1.3,18.1,0,2,.1,4,.2,6.1.1,3.9.3,7.9.5,11.9.1,2.4.3,4.8.5,7.2s.4,7.2.7,10.8l.6,7.5c.4,3.5.7,7,1,10.5a2.8,2.8,0,0,1,.1.9l-5.1-1.3-13.2-3.4-12.6-3.1-13.6-3.1-12.6-2.7-13.8-2.6-12.6-2.3c-4.7-.9-9.4-1.6-14.1-2.3l-8.6-1.4c-1.1-17.1-1.7-34.1-1.7-50.8a798.8,798.8,0,0,1,47.4-269.9c80.1-220.5,252.5-392.8,473-473a785.2,785.2,0,0,1,186.4-42.9,814.1,814.1,0,0,1,83.5-4.4,41.6,41.6,0,0,0,0-83.2c-14.1,0-28.3.4-42.7,1.1.7-14.3,1.1-28.6,1.1-42.7,0-1.1-.1-2.2-.2-3.3s.2-2.2.2-3.4c0-14-.4-28.3-1.1-42.6,14.4.7,28.6,1.1,42.7,1.1a41.6,41.6,0,0,0,0-83.2c-16.7,0-33.7-.6-50.8-1.7-.4-2.8-.9-5.7-1.3-8.5-.7-4.7-1.5-9.5-2.3-14.2s-1.5-8.4-2.3-12.6-1.7-9.2-2.7-13.8-1.7-8.3-2.6-12.5-2.1-9.1-3.1-13.7-2.1-8.4-3.1-12.6-2.3-8.8-3.4-13.2c-.5-1.7-.9-3.4-1.4-5.1h.9l10.5,1,7.5.6,10.9.8,7.2.4,11.9.5,6.1.2q9,.3,18,.3a41.6,41.6,0,0,0,0-83.2l-14.4-.2h-4.5l-10.2-.4-4.9-.3-10.1-.6-4.4-.4-12.3-1.1-2.1-.2c-5.1-.5-10.1-1.1-15.1-1.8h-.6l-14-2-2.9-.5-6.9-1.2-1.2-2.8c-2.2-5.7-4.6-11.4-7-17.1l-2.5-6c-2.4-5.3-4.7-10.7-7.1-15.9-.6-1.3-1.1-2.6-1.7-3.8-3-6.5-6.1-12.9-9.2-19.3l-2.3-4.6c-2.5-5.1-5.1-10.1-7.7-15.1l-2.7-5.1c-3.2-6.1-6.6-12.3-10-18.4l-2-3.4c-2-3.5-4-7.1-6.1-10.6l1.4.4,2.3.8,8.6,2.8,3,.9,8.4,2.5,2.8.9,9.6,2.5,1.5.5,11.7,2.8h.2l11.1,2.5,2.8.5,8.6,1.7,3.4.6,8.5,1.4,3.2.5,10.2,1.5h1.3l11.8,1.4,2.7.2,9,.8,3.9.3,7.9.5,4.2.2,8.2.4h15.6a41.6,41.6,0,0,0,0-83.2c-229.3,0-415.9-186.5-415.9-415.9s186.6-415.9,415.9-415.9a41.6,41.6,0,0,0,0-83.2c-275.2,0-499.1,223.9-499.1,499.1,0,4,.1,7.9.1,11.9.1,1.2.1,2.5.2,3.7s.2,5.5.3,8.2.1,2.8.2,4.2.3,5.3.5,7.9l.3,3.9c.2,3,.5,6,.8,9a24.5,24.5,0,0,1,.2,2.7c.4,4,.9,7.9,1.4,11.8a5.9,5.9,0,0,0,.2,1.3c.4,3.4.9,6.8,1.4,10.3.2,1,.3,2.1.5,3.2.5,2.8.9,5.6,1.4,8.4l.6,3.4c.5,2.9,1.1,5.8,1.7,8.6.2,1,.3,1.9.5,2.9.8,3.7,1.6,7.4,2.5,11.1h0c.9,3.9,1.9,7.8,2.8,11.6l.5,1.7c.8,3.1,1.7,6.3,2.6,9.5.2.9.5,1.9.8,2.8.8,2.8,1.6,5.6,2.5,8.4l.9,3c.9,2.9,1.9,5.7,2.8,8.6l.8,2.3c.1.5.3.9.4,1.4l-10.6-6.1-3.4-2-18.4-10-5.1-2.7c-5-2.6-10-5.2-15.1-7.7l-4.6-2.3c-6.4-3.1-12.8-6.2-19.2-9.1l-3.8-1.8-16-7-6-2.6c-5.6-2.4-11.3-4.7-17.1-7l-2.8-1.2-1.2-6.9c-.1-1-.3-1.9-.4-2.8-.8-4.7-1.4-9.4-2.1-14.1v-.6c-.7-5-1.3-10-1.8-15.1-.1-.7-.1-1.4-.2-2.1-.4-4.1-.8-8.1-1.1-12.2l-.3-4.5c-.3-3.4-.5-6.7-.7-10.1l-.3-4.9c-.1-3.4-.2-6.8-.4-10.2,0-1.5-.1-3-.1-4.4-.1-4.9-.2-9.7-.2-14.5,0-332.5,270.6-603.1,603.1-603.1a41.6,41.6,0,0,0,0-83.2c-378.4,0-686.3,307.9-686.3,686.3q0,9,.3,18c0,2.1.1,4.1.2,6.1.1,4,.3,8,.5,12,.1,2.4.3,4.8.5,7.1s.4,7.3.7,10.9l.6,7.5c.4,3.5.7,7,1,10.5a2.8,2.8,0,0,1,.1.9l-5.1-1.3-13.2-3.4-12.6-3.2-13.6-3-12.6-2.7c-4.6-1-9.2-1.8-13.8-2.7l-12.6-2.3-14.1-2.2-8.6-1.4c-1.1-17.1-1.7-34.1-1.7-50.8a791.1,791.1,0,0,1,790.3-790.3,41.6,41.6,0,1,0,0-83.1c-14.1,0-28.3.4-42.7,1.1.7-14.4,1.1-28.6,1.1-42.7a42.1,42.1,0,0,0-.4-6.2V0h-83.1V46h.3v1c0,16.7-.5,33.6-1.6,50.7l-8.5,1.4-14.3,2.3-12.5,2.3-13.8,2.6-12.5,2.7-13.7,3.1-12.6,3.1-13.2,3.4-5.1,1.4a2.8,2.8,0,0,1,.1-.9ZM2835,2798.7c0,14.1.4,28.4,1.1,42.7-14.4-.7-28.6-1.1-42.7-1.1a41.6,41.6,0,1,1,0-83.2c14.1,0,28.3-.3,42.7-1C2835.4,2770.4,2835,2784.6,2835,2798.7ZM1875,1003.8l-3.3-.2a41.6,41.6,0,0,1,0-83.2l3.3-.2,3.3.2c14.1,0,28.4-.4,42.7-1.1-.7,14.3-1.1,28.6-1.1,42.7s.4,28.4,1.1,42.7c-14.3-.7-28.6-1.1-42.7-1.1ZM2050.4,1232h0a787.4,787.4,0,0,1-42.9-186.4,811.2,811.2,0,0,1-4.4-83.5c0-16.7.6-33.7,1.7-50.8l8.3-1.3,14.4-2.3,12.5-2.3,13.9-2.7,12.5-2.6,13.6-3.1,12.7-3.2,13.1-3.3,5.2-1.4a4.1,4.1,0,0,0-.1,1.1l-.9,9.1c-.2,2.9-.6,5.9-.8,8.8l-.6,9.9-.6,8.1c-.2,3.8-.3,7.5-.4,11.3l-.3,6.7c-.1,6-.2,12-.2,18,0,378.4,307.8,686.3,686.3,686.3,126.1,0,228.7,102.6,228.7,228.7,0,1.2.1,2.3.2,3.4s-.2,2.2-.2,3.3c0,126.1-102.6,228.8-228.7,228.8-6,0-12,0-18,.2l-6.4.2-11.7.5-7.6.5-10.4.7-8,.7-10,1h-.9c.4-1.6.8-3.3,1.3-4.9,1.2-4.5,2.3-8.9,3.4-13.4s2.1-8.5,3.1-12.7,2.1-8.8,3-13.3,1.9-8.6,2.8-13,1.8-8.8,2.6-13.2l2.4-13.2c.8-4.4,1.4-8.8,2.1-13.3s1.1-6.1,1.5-9.2c17.1-1.1,34-1.6,50.8-1.6,68.8,0,124.7-56,124.7-124.8,0-1.1,0-2.2-.1-3.3s.1-2.2.1-3.4a124.8,124.8,0,0,0-124.7-124.7,789.2,789.2,0,0,1-350.3-81.7C2261.3,1580.9,2120.6,1424.9,2050.4,1232Zm700.3,694.4c.7-14.3,1.1-28.6,1.1-42.7,0-1.1-.1-2.2-.2-3.3s.2-2.2.2-3.4c0-14.1-.4-28.3-1.1-42.6,14.3.7,28.6,1.1,42.7,1.1A41.6,41.6,0,0,1,2835,1877c0,1.2,0,2.3.1,3.4s-.1,2.2-.1,3.3a41.7,41.7,0,0,1-41.6,41.6C2779.3,1925.3,2765,1925.7,2750.7,1926.4ZM998.2,962c0,14.1.4,28.4,1.1,42.7-14.3-.7-28.6-1.1-42.7-1.1a41.6,41.6,0,1,1,0-83.2c14.1,0,28.4-.4,42.7-1.1C998.6,933.6,998.2,947.9,998.2,962Zm30.1-227.5c-1.2,4.4-2.3,8.7-3.4,13.1s-2.1,8.5-3.1,12.7-2.1,9.1-3.1,13.6l-2.7,12.6c-.9,4.6-1.8,9.1-2.6,13.7l-2.4,12.7c-.8,4.7-1.5,9.3-2.2,14-.5,2.9-1,5.8-1.4,8.7-17.1,1.1-34.1,1.6-50.8,1.6a124.8,124.8,0,0,0,0,249.6,814.1,814.1,0,0,1,83.5,4.4,789,789,0,0,1,702.4,702.4,813.7,813.7,0,0,1,4.4,83.4c0,1.2.1,2.3.2,3.4s-.2,2.2-.2,3.3c0,16.7-.6,33.7-1.7,50.8l-8.4,1.3-14.3,2.3-12.5,2.3c-4.6.9-9.3,1.7-13.9,2.7s-8.3,1.7-12.5,2.7l-13.6,3-12.7,3.2-13.1,3.4-5.2,1.3a2.8,2.8,0,0,0,.1-.9c.4-3.5.7-7.1,1-10.6s.5-4.9.7-7.4.5-7.3.7-11,.3-4.7.5-7c.2-4.1.3-8.1.4-12.2l.3-5.9c.1-6,.2-12,.2-18,0-1.1-.1-2.2-.2-3.3s.2-2.2.2-3.4c0-378.4-307.8-686.2-686.3-686.2-126.1,0-228.7-102.6-228.7-228.8S830.5,733.2,956.6,733.2c6,0,12,0,18.1-.2l6.1-.2,11.9-.5,7.2-.5,10.8-.7,7.5-.7,10.5-1h.9C1029.1,731.1,1028.7,732.8,1028.3,734.5ZM1875,1835.3l3.3.2a41.5,41.5,0,0,1,41.6,41.5c0,1.2.1,2.3.2,3.4s-.2,2.2-.2,3.3a41.6,41.6,0,0,1-41.6,41.6l-3.3.2-3.3-.2c-14.1,0-28.4.4-42.7,1.1.7-14.3,1.1-28.6,1.1-42.7,0-1.1-.1-2.2-.2-3.3s.2-2.2.2-3.4c0-14-.4-28.3-1.1-42.6,14.3.7,28.6,1.1,42.7,1.1ZM956.6,546.1l11.9-.2h3.7l8.2-.3,4.2-.2,7.9-.5,4-.3,9-.8,2.6-.3,11.8-1.3,1.3-.2,10.3-1.4,3.2-.5,8.4-1.4,3.5-.7,8.6-1.6,2.8-.6q5.6-1.1,11.1-2.4h.1l11.7-2.9,1.6-.4,9.5-2.6,2.9-.8,8.3-2.5,3-.9,8.6-2.8,2.3-.8,1.4-.5-6.1,10.7-2,3.4c-3.4,6.1-6.7,12.2-10,18.4-.9,1.7-1.8,3.4-2.6,5.1-2.7,5-5.2,10-7.8,15.1l-2.3,4.6c-3.1,6.3-6.1,12.8-9.1,19.2-.6,1.3-1.2,2.5-1.7,3.8-2.5,5.3-4.8,10.6-7.1,16-.9,2-1.7,4-2.6,5.9-2.4,5.7-4.7,11.4-7,17.1-.4,1-.8,1.9-1.1,2.9l-7,1.2-2.8.4-14.1,2h-.5l-15.1,1.8-2.1.2-12.3,1.1-4.4.3-10.2.7-4.9.2-10.2.4-4.4.2-14.5.2c-172,0-311.9,139.9-311.9,311.9s139.9,312,311.9,312c332.6,0,603.1,270.5,603.1,603,0,1.2.1,2.3.2,3.4s-.2,2.2-.2,3.3c0,4.8,0,9.6-.2,14.5,0,1.4-.1,2.9-.1,4.4-.1,3.4-.2,6.8-.4,10.2l-.3,4.9c-.1,3.4-.4,6.8-.6,10.1l-.3,4.5c-.4,4.1-.7,8.2-1.2,12.2a14.9,14.9,0,0,1-.2,2.1c-.5,5.1-1.1,10.1-1.7,15.1a1.3,1.3,0,0,0-.1.6c-.6,4.7-1.3,9.4-2,14.1-.2.9-.3,1.8-.5,2.8s-.8,4.6-1.2,6.9l-2.8,1.2-17.1,7-5.9,2.5-16,7.1-3.8,1.7c-6.5,3-12.9,6.1-19.2,9.2l-4.7,2.3-15.1,7.7-5,2.7c-6.2,3.3-12.4,6.6-18.4,10l-3.5,2-10.6,6.1.5-1.4c.2-.8.5-1.5.7-2.3,1-2.9,1.9-5.7,2.8-8.6.4-1,.7-2,1-3,.8-2.8,1.6-5.6,2.5-8.4.2-.9.5-1.9.8-2.8.9-3.2,1.7-6.4,2.6-9.6a8.3,8.3,0,0,1,.4-1.5c1-3.9,1.9-7.8,2.8-11.7h.1l2.4-11.1.6-2.9c.5-2.8,1.1-5.7,1.6-8.6l.6-3.4c.5-2.8,1-5.6,1.4-8.5.2-1,.4-2.1.5-3.1l1.5-10.3a5.1,5.1,0,0,1,.2-1.3c.4-3.9.9-7.9,1.3-11.8a24.5,24.5,0,0,0,.2-2.7c.3-3,.6-5.9.8-9,.2-1.3.2-2.6.3-3.9s.4-5.3.5-7.9l.3-4.2.3-8.2c0-1.2.1-2.5.1-3.7.1-4,.2-7.9.2-11.9,0-1.1-.1-2.2-.2-3.3s.2-2.2.2-3.4c0-275.2-224-499.1-499.2-499.1-229.3,0-415.9-186.5-415.9-415.9S727.3,546.1,956.6,546.1ZM915,1883.7c0-1.1,0-2.2-.1-3.3s.1-2.2.1-3.4c0-14.1-.4-28.3-1.1-42.6,14.4.7,28.6,1.1,42.7,1.1a41.5,41.5,0,0,1,41.6,41.5c0,1.2.1,2.3.2,3.4s-.2,2.2-.2,3.3a41.6,41.6,0,0,1-41.6,41.6c-14.1,0-28.3.4-42.7,1.1C914.6,1912.1,915,1897.8,915,1883.7Zm-30.1,227.7c1.2-4.5,2.4-8.9,3.5-13.4s2.1-8.5,3.1-12.7,2-8.8,3-13.3,1.9-8.6,2.8-13,1.7-8.8,2.6-13.2l2.4-13.2,2.1-13.3,1.5-9.2c17-1.1,34-1.6,50.7-1.6a125,125,0,0,0,124.8-124.8c0-1.1-.1-2.2-.2-3.3s.2-2.2.2-3.4c0-68.8-56-124.7-124.8-124.7a789.9,789.9,0,0,1-83.5-4.5,788.6,788.6,0,0,1-266.8-77.2A788.5,788.5,0,0,1,213.7,1232h0a787.4,787.4,0,0,1-42.9-186.4,811.2,811.2,0,0,1-4.4-83.5c0-16.7.5-33.7,1.6-50.8l8.4-1.3,14.4-2.3,12.4-2.3c4.7-.9,9.3-1.7,13.9-2.7l12.5-2.6,13.7-3.1,12.6-3.2,13.2-3.3,5.1-1.4a4.1,4.1,0,0,1-.1,1.1c-.3,3-.5,6.1-.8,9.1s-.6,5.9-.8,8.8-.5,6.6-.7,9.9-.3,5.4-.5,8.1-.3,7.5-.5,11.3c0,2.2-.2,4.5-.2,6.7q-.3,9-.3,18c0,378.4,307.9,686.3,686.3,686.3,126.2,0,228.8,102.6,228.8,228.7,0,1.2.1,2.3.2,3.4s-.2,2.2-.2,3.3c0,126.1-102.6,228.8-228.8,228.8-6,0-12,0-18,.2l-6.3.2-11.7.5-7.6.5-10.4.7-8.1.7-9.9,1h-1C884.1,2114.7,884.5,2113,884.9,2111.4Zm-83.4,203.4,1.2-2c3.5-6.3,6.9-12.5,10.2-18.8.9-1.6,1.7-3.2,2.5-4.8,2.7-5.1,5.3-10.2,7.9-15.4l2.2-4.4c3.1-6.5,6.2-12.9,9.2-19.4l1.6-3.4c2.5-5.5,4.9-11.1,7.3-16.7.8-1.7,1.5-3.4,2.3-5.2,2.7-6.5,5.5-13.1,8.1-19.7,0-.1.1-.2.1-.3v-.3l5.6-.9,4.8-.8,11.8-1.7,2.5-.3c4.9-.7,9.7-1.2,14.6-1.7l3-.3,11.5-1.1,4.7-.3,9.9-.7,5-.2,10.1-.4,4.5-.2,14.4-.2c172,0,312-139.9,312-311.9,0-1.1-.1-2.2-.2-3.3s.2-2.2.2-3.4c0-172-140-311.9-312-311.9-332.5,0-603.1-270.5-603.1-603.1,0-4.8.1-9.6.2-14.4.1-1.5.1-3.1.2-4.6.1-3.3.2-6.6.4-9.9s.1-3.5.2-5.3.4-6.4.7-9.6l.3-5c.3-3.7.7-7.3,1-10.9.1-1.2.2-2.4.4-3.5.5-4.9,1-9.7,1.7-14.5l.3-2.4c.5-4.1,1.1-8.1,1.7-12.1.2-1.4.5-2.7.7-4.1s.7-4.1,1-6.1l2.3-.9c6-2.4,11.9-4.8,17.7-7.3l5.8-2.5c5.4-2.3,10.9-4.7,16.2-7.2l3.7-1.6,19.3-9.2,4.3-2.2c5.3-2.6,10.5-5.3,15.6-8l4.6-2.3L470.7,808l1.7-.9,12.1-7a7.6,7.6,0,0,0-.4,1.1c-.4,1.2-.8,2.3-1.1,3.4s-1.7,4.9-2.4,7.4-.9,2.7-1.3,4l-2.1,7.1c-.4,1.3-.8,2.6-1.1,4s-1.5,5.2-2.2,7.8-.5,2.1-.8,3.2c-.9,3.6-1.9,7.3-2.7,11-.2.7-.3,1.4-.5,2.1-.7,3-1.3,6.1-1.9,9.1-.3,1.3-.6,2.6-.8,3.9l-1.5,7.5c-.2,1.4-.5,2.8-.7,4.2s-.9,5-1.3,7.6l-.6,3.9c-.5,3.1-.9,6.2-1.3,9.3l-.3,2.2c-.5,3.8-.9,7.6-1.3,11.5l-.3,3.1c-.3,2.9-.6,5.7-.8,8.6l-.3,4.1c-.2,2.6-.3,5.2-.5,7.8s-.1,2.8-.2,4.2l-.3,8.2c0,1.2-.1,2.5-.1,3.7-.1,4-.2,7.9-.2,11.9,0,275.2,223.9,499.1,499.1,499.1,229.4,0,416,186.6,416,415.9,0,1.2,0,2.3.1,3.4s-.1,2.2-.1,3.3c0,229.3-186.6,415.9-416,415.9l-11.8.2H941l-8.2.3-4.2.2-7.8.5-4,.3-9,.8-2.7.3-11.7,1.3-1.4.2-10.2,1.4-3.3.6-8.3,1.3-3.5.7-8.5,1.6-3,.6-10.7,2.3-.5.2c-3.9.8-7.7,1.8-11.5,2.8l-2,.5-9.1,2.5-3.2.9-7.9,2.3-3.4,1.1-8.1,2.6-2.8,1-1.2.4Zm155.1,525.5a41.6,41.6,0,1,1,0-83.2c14.1,0,28.4-.3,42.7-1-.7,14.3-1.1,28.5-1.1,42.6s.4,28.4,1.1,42.7C985,2840.7,970.7,2840.3,956.6,2840.3Zm227.5,30.1L1171,2867l-12.7-3.1-13.6-3.1-12.6-2.7-13.7-2.6-12.6-2.3c-4.7-.9-9.4-1.6-14.1-2.3l-8.6-1.4c-1.1-17.1-1.7-34.1-1.7-50.8a817.1,817.1,0,0,1,4.4-83.5,785.3,785.3,0,0,1,43-186.4c80.1-220.5,252.5-392.8,472.9-473a786,786,0,0,1,186.5-42.9,814.1,814.1,0,0,1,83.5-4.4l3.3-.2,3.3.2a125,125,0,0,0,124.8-124.8c0-1.1-.1-2.2-.2-3.3s.2-2.2.2-3.4c0-68.8-56-124.7-124.8-124.7h-6.6c-16.7,0-33.7-.6-50.8-1.7-.4-2.8-.9-5.7-1.3-8.5-.8-4.7-1.5-9.5-2.3-14.2s-1.5-8.4-2.3-12.6l-2.7-13.8-2.7-12.5c-1-4.6-2-9.1-3.1-13.7s-2-8.4-3.1-12.6-2.2-8.8-3.4-13.2c-.4-1.7-.8-3.4-1.3-5.1h.9l10.5,1,7.5.6,10.8.8,7.2.4,12,.5,6,.2c6,.2,12.1.3,18.1.3l3.3-.2,3.3.2c126.2,0,228.8,102.6,228.8,228.7,0,1.2.1,2.3.2,3.4s-.2,2.2-.2,3.3c0,126.1-102.6,228.8-228.8,228.8h-6.6c-378.4,0-686.3,307.8-686.3,686.2,0,6.1.1,12.1.2,18.1l.3,6.1c.1,3.9.2,7.9.4,11.9.2,2.4.4,4.8.5,7.2s.4,7.2.7,10.8.5,5,.7,7.5.6,7,1,10.5a2.8,2.8,0,0,0,.1.9Zm204.7,84.1-3.4-1.9c-6-3.5-12.2-6.8-18.3-10.1l-5.1-2.6c-5-2.7-10.1-5.2-15.1-7.8l-4.7-2.3c-6.3-3.1-12.7-6.1-19.2-9.1l-3.8-1.7-16-7.1-5.9-2.6-17.1-7-2.8-1.1-1.2-7c-.2-.9-.3-1.9-.5-2.8-.7-4.7-1.4-9.4-2-14.1a.9.9,0,0,0-.1-.5c-.6-5-1.2-10.1-1.7-15.1a14.9,14.9,0,0,1-.2-2.1c-.4-4.1-.8-8.2-1.1-12.3-.2-1.5-.3-3-.4-4.4l-.6-10.2-.3-4.9c-.2-3.4-.3-6.8-.4-10.2,0-1.5-.1-2.9-.1-4.4-.2-4.8-.2-9.6-.2-14.5,0-332.5,270.5-603.1,603.1-603.1h6.6c172,0,312-139.9,312-311.9,0-1.1-.1-2.2-.2-3.3s.2-2.2.2-3.4c0-172-140-311.9-312-311.9l-3.3.2-3.3-.2-14.5-.2h-4.4l-10.2-.4-4.9-.3-10.2-.6-4.4-.4-12.3-1.1-2.1-.2-15.1-1.8h-.5l-14.1-2-2.8-.5-6.9-1.2-1.2-2.8c-2.3-5.8-4.6-11.4-7-17.1l-2.6-6c-2.3-5.3-4.6-10.7-7.1-15.9-.5-1.3-1.1-2.6-1.7-3.8-2.9-6.5-6-12.9-9.1-19.3-.8-1.5-1.6-3-2.3-4.6l-7.7-15.1-2.7-5.1c-3.3-6.1-6.6-12.3-10-18.4l-2-3.4c-2-3.5-4-7.1-6.1-10.6l1.4.4,2.3.8,8.6,2.8,3,.9,8.3,2.5,2.9.9,9.6,2.5,1.5.5,11.7,2.8h.1l11.1,2.5,2.8.5,8.7,1.7,3.4.6,8.4,1.4,3.2.5,10.3,1.5h1.3l11.8,1.4,2.6.2,9,.8,4,.3,7.9.5,4.2.2,8.2.4h22.2c229.4,0,415.9,186.6,415.9,415.9,0,1.2.1,2.3.2,3.4s-.2,2.2-.2,3.3c0,229.3-186.5,415.9-415.9,415.9l-3.3.2-3.3-.2c-275.2,0-499.1,223.9-499.1,499.1,0,4,0,8,.1,11.9,0,1.3.1,2.5.1,3.7l.3,8.2.3,4.2c.1,2.7.3,5.3.5,7.9s.2,2.7.2,4c.3,3,.6,6,.8,9l.3,2.6c.4,4,.9,7.9,1.4,11.8,0,.5.1.9.1,1.3l1.5,10.3c.1,1.1.3,2.1.5,3.2.4,2.8.9,5.6,1.4,8.5l.6,3.4c.5,2.8,1.1,5.7,1.6,8.5l.6,2.9,2.4,11.1h.1c.9,3.9,1.8,7.8,2.8,11.7a9.4,9.4,0,0,1,.4,1.6c.9,3.2,1.7,6.4,2.6,9.5l.9,2.9,2.4,8.3c.3,1,.6,2,1,3,.9,2.9,1.8,5.8,2.8,8.7l.7,2.2c.2.5.3,1,.5,1.4Zm482.9,156.2,3.3-.2,3.3.2,14.5.2h4.4l10.1.4,5.1.3,9.9.6,4.7.4,11.5,1,2.9.3,14.6,1.7,2.6.4,11.7,1.6,4.9.8,5.5,1h.1l.6,1.7,7.5,18.3c.9,1.9,1.7,3.9,2.6,5.9q3.3,7.8,6.9,15.6c.7,1.4,1.3,2.9,1.9,4.3l9,18.9c.9,1.7,1.8,3.4,2.6,5.1l7.4,14.6,2.9,5.4c3.2,6.1,6.6,12.3,10,18.3l1.6,2.9,6.4,11.1-1.2-.4-2.8-.9-8.1-2.7-3.4-1-7.9-2.4-3.2-.9-9.1-2.5-2-.5-11.5-2.8h-.6l-10.6-2.4-3.1-.6-8.4-1.6-3.5-.6-8.4-1.4-3.3-.5-10.1-1.4-1.4-.2-11.8-1.4-2.7-.2-8.9-.8-4-.3-7.9-.5-4.2-.3-8.2-.3h-22.2c-229.4,0-415.9-186.6-415.9-416s186.5-415.9,415.9-415.9l3.3-.2,3.3.2c275.2,0,499.1-223.9,499.1-499.1,0-1.1,0-2.2-.1-3.3s.1-2.2.1-3.4c0-3.9,0-7.9-.1-11.8,0-1.3-.1-2.5-.1-3.8l-.3-8.1-.3-4.3c-.1-2.6-.3-5.2-.5-7.7s-.2-2.8-.3-4.2-.4-5.7-.7-8.5l-.3-3.2c-.4-3.8-.9-7.7-1.3-11.5l-.3-2.2c-.4-3.1-.9-6.2-1.3-9.3-.2-1.3-.5-2.6-.7-3.9l-1.2-7.6c-.3-1.4-.5-2.8-.8-4.2s-.9-5-1.4-7.5-.5-2.6-.8-3.8c-.6-3.1-1.3-6.1-2-9.1-.1-.7-.3-1.4-.4-2.1l-2.7-11.1-.9-3.1-2.1-7.9c-.4-1.3-.8-2.6-1.1-4s-1.4-4.7-2.2-7l-1.2-4.1-2.4-7.3c-.4-1.2-.8-2.3-1.1-3.4a7.6,7.6,0,0,1-.4-1.1l12.1,6.9,1.6,1,19,10.3,4.5,2.3c5.2,2.8,10.4,5.4,15.6,8l4.4,2.2c6.4,3.2,12.8,6.2,19.3,9.2l3.6,1.6c5.4,2.5,10.8,4.9,16.3,7.2l5.7,2.5,17.7,7.3,2.3.9c.4,2.1.8,4.1,1.1,6.2l.6,4,1.8,12.1.3,2.4c.6,4.9,1.2,9.7,1.7,14.5l.3,3.5c.4,3.6.7,7.3,1,10.9.2,1.7.3,3.4.4,5.1l.6,9.6.3,5.2c.2,3.3.3,6.6.4,9.9,0,1.6.1,3.1.1,4.6.2,4.8.2,9.6.2,14.4,0,1.2.1,2.3.2,3.4s-.2,2.2-.2,3.3c0,332.5-270.5,603.1-603.1,603.1l-3.3.2-3.3-.2c-172,0-312,139.9-312,311.9S1699.7,3110.7,1871.7,3110.7Zm48.2-312c0,14.2.4,28.4,1.1,42.7-14.3-.7-28.6-1.1-42.7-1.1l-3.3.2-3.3-.2a41.6,41.6,0,0,1,0-83.2h6.6c14.1,0,28.4-.3,42.7-1C1920.3,2770.4,1919.9,2784.6,1919.9,2798.7Zm228.4-172.1c-7.5,2.7-15,5.4-22.6,7.8a800.6,800.6,0,0,1-247.4,39.6h-6.6c-68.8,0-124.8,55.9-124.8,124.7a125,125,0,0,0,124.8,124.8h6.6c16.7,0,33.7.6,50.8,1.7.4,3,1,6.1,1.5,9.1.6,4.5,1.3,8.9,2.1,13.4l2.4,13.1c.8,4.4,1.7,8.9,2.6,13.3l2.7,13,3,13.2c1,4.3,2.1,8.5,3.2,12.7s2.2,9,3.5,13.5l1.2,4.9h-.9c-3.3-.4-6.7-.6-10-.9l-8-.8-10.5-.7-7.5-.4-11.7-.5-6.4-.3-18-.2-3.3.2-3.3-.2c-126.2,0-228.8-102.6-228.8-228.8S1745.5,2570,1871.7,2570l3.3-.2,3.3.2c378.4,0,686.3-307.9,686.3-686.3,0-1.1-.1-2.2-.2-3.3s.2-2.2.2-3.4c0-6-.1-12-.2-18l-.3-6.5c-.1-3.9-.2-7.7-.5-11.5s-.3-5.3-.5-8l-.6-10c-.3-2.9-.6-5.8-.8-8.8l-.9-9.1a3.1,3.1,0,0,0-.1-1l5.2,1.3,13.1,3.4,12.7,3.1,13.6,3.1,12.6,2.7,13.7,2.6,12.6,2.3,14.2,2.3,8.5,1.4c1.1,17,1.7,34,1.7,50.7,0,1.2.1,2.3.2,3.4s-.2,2.2-.2,3.3a811.2,811.2,0,0,1-4.4,83.5c-.9,8-1.8,15.9-2.9,23.9a780.1,780.1,0,0,1-40.1,162.5A788.5,788.5,0,0,1,2148.3,2626.6Zm645.1-327-11.9.2h-3.7l-8.2.3-4.2.2-7.9.5-4,.3-8.9.8-2.7.3-11.8,1.3-1.4.2-10.2,1.4-3.3.6-8.3,1.3-3.5.7-8.4,1.6-3.1.6-10.6,2.3-.6.2c-3.8.8-7.7,1.8-11.5,2.8l-2,.5-9.1,2.5-3.2.9-7.9,2.3-3.4,1.1-8.1,2.6-2.8,1-1.2.4c2.3-3.9,4.5-7.9,6.7-11.8l1.2-2,10.3-18.8,2.4-4.8c2.7-5.1,5.3-10.2,7.9-15.4.8-1.5,1.5-3,2.2-4.4,3.2-6.5,6.3-12.9,9.3-19.4l1.5-3.4c2.5-5.5,5-11.1,7.4-16.7.7-1.7,1.5-3.4,2.2-5.2,2.8-6.5,5.5-13.1,8.1-19.7l.2-.3a.4.4,0,0,1,.1-.3l5.5-.9,4.9-.8,11.7-1.7,2.6-.3c4.8-.7,9.7-1.2,14.5-1.7l3-.3,11.5-1.1,4.7-.3,9.9-.7,5-.2,10.2-.4,4.4-.2,14.5-.2c172,0,311.9-139.9,311.9-311.9,0-1.1-.1-2.2-.2-3.3s.2-2.2.2-3.4c0-172-139.9-311.9-311.9-311.9-332.6,0-603.1-270.5-603.1-603.1,0-4.8.1-9.6.2-14.4,0-1.5.1-3.1.1-4.6.1-3.3.2-6.6.4-9.9l.3-5.3.6-9.6c.1-1.6.2-3.3.4-5,.3-3.7.6-7.3,1-10.9l.3-3.5c.5-4.9,1.1-9.7,1.7-14.5l.3-2.4c.6-4.1,1.1-8.1,1.8-12.1l.6-4.1c.3-2,.7-4.1,1.1-6.1l2.3-.9,17.7-7.3,5.8-2.5q8.1-3.4,16.2-7.2l3.6-1.6,19.3-9.2,4.4-2.2,15.6-8,4.5-2.3c6.4-3.4,12.7-6.9,19-10.4l1.6-.9,12.1-7c-.1.4-.3.8-.4,1.1s-.7,2.3-1.1,3.4l-2.4,7.4-1.2,4c-.8,2.4-1.5,4.7-2.2,7.1s-.7,2.6-1.1,4l-2.1,7.8-.9,3.2-2.7,11c-.1.7-.3,1.4-.4,2.1-.7,3-1.4,6.1-2,9.1-.3,1.3-.5,2.6-.8,3.9s-1,5-1.4,7.5-.5,2.8-.8,4.2-.8,5-1.3,7.6l-.6,3.9c-.4,3.1-.9,6.2-1.3,9.3l-.3,2.2c-.4,3.8-.9,7.6-1.3,11.5l-.3,3.1c-.3,2.9-.5,5.7-.7,8.6a28.3,28.3,0,0,0-.3,4.1c-.2,2.6-.4,5.2-.5,7.8l-.3,4.2-.3,8.2c0,1.2-.1,2.5-.1,3.7-.1,4-.2,7.9-.2,11.9,0,275.2,224,499.1,499.2,499.1,229.3,0,415.9,186.6,415.9,415.9,0,1.2.1,2.3.2,3.4s-.2,2.2-.2,3.3C3209.3,2113,3022.7,2299.6,2793.4,2299.6ZM2835,962c0,14.1.4,28.4,1.1,42.7-14.4-.7-28.6-1.1-42.7-1.1a41.6,41.6,0,1,1,0-83.2c14.1,0,28.3-.4,42.7-1.1C2835.4,933.6,2835,947.9,2835,962Zm30-227.5c-1.1,4.4-2.3,8.7-3.4,13.1s-2.1,8.5-3.1,12.7-2.1,9.1-3.1,13.6l-2.7,12.6c-.9,4.6-1.8,9.1-2.6,13.7s-1.6,8.5-2.3,12.7-1.6,9.3-2.3,14c-.4,2.9-1,5.8-1.4,8.7-17,1.1-34,1.6-50.7,1.6a124.8,124.8,0,0,0,0,249.6,815.6,815.6,0,0,1,83.5,4.4,789,789,0,0,1,702.3,702.4,813.7,813.7,0,0,1,4.4,83.4c0,1.2.1,2.3.2,3.4s-.2,2.2-.2,3.3c0,16.7-.5,33.7-1.6,50.8l-8.5,1.3-14.3,2.3-12.5,2.3c-4.6.9-9.2,1.7-13.8,2.7s-8.4,1.7-12.5,2.7l-13.7,3-12.6,3.2-13.2,3.4-5.1,1.3a2.8,2.8,0,0,1,.1-.9l.9-10.6c.3-2.5.5-4.9.7-7.4s.5-7.3.7-11,.4-4.7.5-7c.2-4.1.3-8.1.5-12.2,0-2,.2-3.9.2-5.9.2-6,.2-12,.2-18,0-1.1,0-2.2-.1-3.3s.1-2.2.1-3.4c0-378.4-307.8-686.2-686.2-686.2-126.2,0-228.8-102.6-228.8-228.8s102.6-228.8,228.8-228.8c6,0,12,0,18-.2l6.1-.2,11.9-.5,7.2-.5,10.9-.7,7.4-.7,10.6-1h.9C2865.9,731.1,2865.5,732.8,2865,734.5Zm84.1-204.7-1.9,3.4c-3.4,6.1-6.8,12.2-10.1,18.4l-2.6,5.1c-2.6,5-5.2,10-7.7,15.1-.8,1.5-1.6,3-2.3,4.6-3.1,6.3-6.2,12.8-9.2,19.2l-1.7,3.8c-2.4,5.3-4.8,10.6-7.1,16-.9,2-1.7,4-2.5,5.9-2.4,5.7-4.8,11.4-7.1,17.1-.3,1-.8,1.9-1.1,2.9l-7,1.2-2.8.4-14.1,2h-.5c-5,.7-10,1.2-15.1,1.8l-2.1.2-12.3,1.1-4.4.3-10.1.7-5,.2-10.2.4-4.4.2-14.4.2c-172,0-312,139.9-312,311.9s140,312,312,312c332.5,0,603.1,270.5,603.1,603,0,1.2,0,2.3.1,3.4s-.1,2.2-.1,3.3c0,4.8-.1,9.6-.2,14.5-.1,1.4-.1,2.9-.2,4.4-.1,3.4-.2,6.8-.4,10.2,0,1.6-.1,3.2-.2,4.9-.2,3.4-.4,6.8-.7,10.1l-.3,4.5c-.4,4.1-.7,8.2-1.1,12.2a14.9,14.9,0,0,0-.2,2.1c-.6,5.1-1.1,10.1-1.8,15.1a1.3,1.3,0,0,1-.1.6c-.6,4.7-1.3,9.4-2,14.1-.1.9-.3,1.8-.4,2.8l-1.2,6.9-2.8,1.2c-5.8,2.3-11.5,4.6-17.1,7l-6,2.5-16,7.1-3.8,1.7-19.2,9.2-4.6,2.3c-5.1,2.5-10.1,5.1-15.1,7.7l-5.1,2.7-18.4,10-3.4,2-10.7,6.1.5-1.4.8-2.3c.9-2.9,1.9-5.7,2.8-8.6l.9-3c.9-2.8,1.7-5.6,2.5-8.4.3-.9.5-1.9.8-2.8.9-3.2,1.8-6.4,2.6-9.6.1-.5.3-1,.4-1.5,1-3.9,2-7.8,2.9-11.7h0q1.4-5.5,2.4-11.1l.6-2.9c.6-2.8,1.1-5.7,1.7-8.6l.6-3.4c.4-2.8.9-5.6,1.4-8.5.1-1,.3-2.1.5-3.1.5-3.5,1-6.9,1.4-10.3.1-.5.1-.9.2-1.3.5-3.9.9-7.9,1.3-11.8l.3-2.7c.3-3,.5-5.9.8-9l.3-3.9c.2-2.6.3-5.3.5-7.9s.1-2.8.2-4.2l.3-8.2c0-1.2.1-2.5.1-3.7.1-4,.2-7.9.2-11.9,0-1.1-.1-2.2-.2-3.3s.2-2.2.2-3.4c0-275.2-223.9-499.1-499.1-499.1-229.4,0-416-186.5-416-415.9s186.6-415.9,416-415.9l11.8-.2h3.8l8.1-.3,4.3-.2,7.8-.5,4-.3,9-.8,2.7-.3,11.7-1.3,1.3-.2,10.3-1.4,3.2-.5,8.5-1.4,3.4-.7,8.6-1.6,2.8-.6q5.6-1.1,11.1-2.4h.2l11.6-2.9,1.6-.4,9.5-2.6,2.9-.8,8.3-2.5,3-.9,8.7-2.8,2.3-.8,1.3-.5Z"/></g></g></svg>